<svg class="w-40 mx-auto mb-10" viewBox="0 0 676 250" fill="none" xmlns="http://www.w3.org/2000/svg">
<path d="M356.886 37.1505C360.538 37.1505 363.619 38.0634 366.129 39.8894C368.686 41.7153 370.466 44.1575 371.47 47.2159V37.6298H377.701V75.8372C377.701 79.3064 376.971 82.3877 375.51 85.0809C374.049 87.7742 371.995 89.874 369.348 91.3804C366.7 92.8867 363.619 93.6399 360.104 93.6399C355.037 93.6399 350.906 92.4074 347.71 89.9424C344.515 87.5231 342.484 84.2364 341.616 80.0825H347.779C348.509 82.5931 349.879 84.556 351.887 85.9711C353.941 87.4318 356.566 88.1622 359.762 88.1622C363.139 88.1622 365.924 87.0666 368.115 84.8755C370.352 82.73 371.47 79.7173 371.47 75.8372V65.6349C370.466 68.6933 368.686 71.1354 366.129 72.9614C363.619 74.7873 360.538 75.7003 356.886 75.7003C353.553 75.7003 350.586 74.9242 347.984 73.3722C345.382 71.8202 343.328 69.6062 341.822 66.7304C340.361 63.8089 339.631 60.3853 339.631 56.4596C339.631 52.5339 340.361 49.1103 341.822 46.1888C343.328 43.2673 345.382 41.0306 347.984 39.4785C350.586 37.9265 353.553 37.1505 356.886 37.1505ZM358.666 42.6967C354.832 42.6967 351.75 43.9292 349.422 46.3942C347.14 48.8136 345.999 52.1687 345.999 56.4596C345.999 60.7505 347.14 64.1285 349.422 66.5935C351.75 69.0128 354.832 70.2225 358.666 70.2225C361.131 70.2225 363.322 69.6519 365.239 68.5107C367.202 67.3695 368.731 65.7718 369.827 63.7176C370.922 61.6178 371.47 59.1985 371.47 56.4596C371.47 53.7207 370.922 51.3014 369.827 49.2016C368.731 47.1018 367.202 45.5041 365.239 44.4085C363.322 43.2673 361.131 42.6967 358.666 42.6967ZM422.196 54.337C422.196 55.6608 422.105 56.802 421.922 57.7606H391.863C392 62.0515 393.21 65.2697 395.492 67.4151C397.82 69.5606 400.65 70.6333 403.983 70.6333C406.995 70.6333 409.506 69.8801 411.515 68.3737C413.569 66.8217 414.824 64.7675 415.281 62.2113H421.922C421.466 64.8132 420.439 67.1412 418.841 69.1954C417.289 71.2496 415.258 72.8472 412.747 73.9885C410.236 75.1297 407.406 75.7003 404.257 75.7003C400.65 75.7003 397.455 74.9242 394.67 73.3722C391.886 71.8202 389.695 69.6062 388.097 66.7304C386.545 63.8089 385.769 60.3853 385.769 56.4596C385.769 52.5339 386.545 49.1103 388.097 46.1888C389.695 43.2673 391.886 41.0306 394.67 39.4785C397.455 37.9265 400.65 37.1505 404.257 37.1505C407.908 37.1505 411.081 37.9265 413.774 39.4785C416.513 41.0306 418.59 43.1076 420.005 45.7095C421.466 48.3114 422.196 51.1873 422.196 54.337ZM415.897 54.7478C416.034 51.9633 415.577 49.6352 414.527 47.7637C413.477 45.8921 412.04 44.4998 410.214 43.5869C408.388 42.6739 406.402 42.2174 404.257 42.2174C400.833 42.2174 397.957 43.2901 395.629 45.4356C393.301 47.5354 392.046 50.6395 391.863 54.7478H415.897ZM450.134 37.0135C454.517 37.0135 458.054 38.4286 460.748 41.2588C463.441 44.0433 464.787 48.0832 464.787 53.3784V75.2209H458.557V53.9261C458.557 50.183 457.598 47.3072 455.681 45.2987C453.763 43.2901 451.162 42.2859 447.875 42.2859C444.451 42.2859 441.712 43.4043 439.658 45.641C437.604 47.8321 436.577 51.0503 436.577 55.2956V75.2209H430.346V37.6298H436.577V46.5312C437.536 43.4727 439.225 41.1219 441.644 39.4785C444.109 37.8352 446.939 37.0135 450.134 37.0135ZM508.923 54.337C508.923 55.6608 508.832 56.802 508.649 57.7606H478.59C478.727 62.0515 479.937 65.2697 482.219 67.4151C484.547 69.5606 487.377 70.6333 490.709 70.6333C493.722 70.6333 496.233 69.8801 498.241 68.3737C500.296 66.8217 501.551 64.7675 502.007 62.2113H508.649C508.193 64.8132 507.166 67.1412 505.568 69.1954C504.016 71.2496 501.985 72.8472 499.474 73.9885C496.963 75.1297 494.133 75.7003 490.983 75.7003C487.377 75.7003 484.182 74.9242 481.397 73.3722C478.613 71.8202 476.422 69.6062 474.824 66.7304C473.272 63.8089 472.496 60.3853 472.496 56.4596C472.496 52.5339 473.272 49.1103 474.824 46.1888C476.422 43.2673 478.613 41.0306 481.397 39.4785C484.182 37.9265 487.377 37.1505 490.983 37.1505C494.635 37.1505 497.808 37.9265 500.501 39.4785C503.24 41.0306 505.317 43.1076 506.732 45.7095C508.193 48.3114 508.923 51.1873 508.923 54.337ZM502.624 54.7478C502.761 51.9633 502.304 49.6352 501.254 47.7637C500.204 45.8921 498.766 44.4998 496.94 43.5869C495.115 42.6739 493.129 42.2174 490.983 42.2174C487.56 42.2174 484.684 43.2901 482.356 45.4356C480.028 47.5354 478.773 50.6395 478.59 54.7478H502.624ZM523.304 45.2302C524.536 42.6283 526.339 40.6197 528.713 39.2046C531.087 37.7439 533.917 37.0135 537.204 37.0135V43.7923H535.286C531.771 43.7923 528.896 44.7052 526.659 46.5312C524.422 48.3114 523.304 51.2786 523.304 55.4325V75.2209H517.073V37.6298H523.304V45.2302ZM558.758 37.1505C562.41 37.1505 565.491 38.0634 568.002 39.8894C570.558 41.7153 572.338 44.1575 573.342 47.2159V37.6298H579.573V75.2209H573.342V65.6349C572.338 68.6933 570.558 71.1354 568.002 72.9614C565.491 74.7873 562.41 75.7003 558.758 75.7003C555.426 75.7003 552.458 74.9242 549.856 73.3722C547.255 71.8202 545.2 69.6062 543.694 66.7304C542.233 63.8089 541.503 60.3853 541.503 56.4596C541.503 52.5339 542.233 49.1103 543.694 46.1888C545.2 43.2673 547.255 41.0306 549.856 39.4785C552.458 37.9265 555.426 37.1505 558.758 37.1505ZM560.538 42.6967C556.704 42.6967 553.622 43.9292 551.294 46.3942C549.012 48.8136 547.871 52.1687 547.871 56.4596C547.871 60.7505 549.012 64.1285 551.294 66.5935C553.622 69.0128 556.704 70.2225 560.538 70.2225C563.003 70.2225 565.194 69.6519 567.111 68.5107C569.074 67.3695 570.604 65.7718 571.699 63.7176C572.795 61.6178 573.342 59.1985 573.342 56.4596C573.342 53.7207 572.795 51.3014 571.699 49.2016C570.604 47.1018 569.074 45.5041 567.111 44.4085C565.194 43.2673 563.003 42.6967 560.538 42.6967ZM601.267 37.1505C605.512 37.1505 608.913 38.2689 611.47 40.5056C614.072 42.6967 615.646 45.6638 616.194 49.407H610.237C609.963 47.1702 609.027 45.3443 607.43 43.9292C605.878 42.4685 603.778 41.7381 601.13 41.7381C598.894 41.7381 597.136 42.2859 595.858 43.3814C594.625 44.4313 594.009 45.8693 594.009 47.6952C594.009 49.0646 594.42 50.183 595.242 51.0503C596.109 51.872 597.159 52.5111 598.391 52.9675C599.67 53.3784 601.404 53.8348 603.595 54.337C606.38 54.976 608.617 55.6379 610.306 56.3227C612.04 56.9617 613.501 58.0116 614.688 59.4724C615.92 60.9331 616.536 62.896 616.536 65.361C616.536 68.4194 615.372 70.9072 613.044 72.8244C610.762 74.7416 607.704 75.7003 603.869 75.7003C599.396 75.7003 595.744 74.6275 592.914 72.4821C590.083 70.3366 588.417 67.3467 587.915 63.5122H593.941C594.169 65.7946 595.15 67.6434 596.885 69.0585C598.665 70.4736 600.993 71.1811 603.869 71.1811C606.015 71.1811 607.681 70.6333 608.868 69.5378C610.1 68.4422 610.716 67.0043 610.716 65.224C610.716 63.7633 610.283 62.5993 609.415 61.732C608.548 60.8646 607.475 60.2027 606.197 59.7463C604.919 59.2898 603.162 58.8105 600.925 58.3084C598.14 57.6693 595.904 57.0302 594.215 56.3911C592.571 55.7521 591.156 54.7478 589.969 53.3784C588.828 51.9633 588.258 50.0689 588.258 47.6952C588.258 44.5455 589.422 42.012 591.75 40.0948C594.078 38.1319 597.25 37.1505 601.267 37.1505ZM623.767 26.6058C623.767 25.4646 624.155 24.5516 624.931 23.8669C625.707 23.1365 626.734 22.7714 628.013 22.7714C629.291 22.7714 630.318 23.1365 631.094 23.8669C631.87 24.5516 632.258 25.4646 632.258 26.6058C632.258 27.747 631.87 28.6828 631.094 29.4131C630.318 30.0979 629.291 30.4402 628.013 30.4402C626.734 30.4402 625.707 30.0979 624.931 29.4131C624.155 28.6828 623.767 27.747 623.767 26.6058ZM631.094 37.6298V75.2209H624.863V37.6298H631.094Z" fill="#8F0606"/>
<path d="M342.557 124.476C342.557 122.246 343.357 120.417 344.958 118.987C346.559 117.501 348.674 116.758 351.304 116.758C353.934 116.758 356.049 117.501 357.65 118.987C359.251 120.417 360.051 122.246 360.051 124.476C360.051 126.648 359.251 128.478 357.65 129.964C356.049 131.394 353.934 132.108 351.304 132.108C348.674 132.108 346.559 131.394 344.958 129.964C343.357 128.478 342.557 126.648 342.557 124.476ZM358.594 137.94V185.792H343.929V137.94H358.594ZM391.101 122.332V185.792H376.436V122.332H391.101ZM470.946 137.425C476.835 137.425 481.466 139.255 484.839 142.914C488.212 146.516 489.899 151.547 489.899 158.007V185.792H475.32V159.722C475.32 156.692 474.491 154.348 472.833 152.69C471.232 150.975 469.031 150.117 466.23 150.117C463.314 150.117 460.999 151.032 459.283 152.862C457.625 154.634 456.796 157.15 456.796 160.408V185.792H442.132V159.722C442.132 156.692 441.332 154.348 439.731 152.69C438.13 150.975 435.929 150.117 433.127 150.117C430.212 150.117 427.896 151.004 426.181 152.776C424.466 154.548 423.608 157.092 423.608 160.408V185.792H408.944V137.94H423.608V146.087C424.866 143.4 426.781 141.284 429.354 139.741C431.984 138.197 435.043 137.425 438.53 137.425C442.189 137.425 445.419 138.283 448.221 139.998C451.022 141.656 453.137 144.057 454.567 147.202C456.225 144.229 458.483 141.856 461.342 140.084C464.257 138.311 467.459 137.425 470.946 137.425ZM505.988 124.476C505.988 122.246 506.789 120.417 508.39 118.987C509.99 117.501 512.106 116.758 514.736 116.758C517.366 116.758 519.481 117.501 521.082 118.987C522.682 120.417 523.483 122.246 523.483 124.476C523.483 126.648 522.682 128.478 521.082 129.964C519.481 131.394 517.366 132.108 514.736 132.108C512.106 132.108 509.99 131.394 508.39 129.964C506.789 128.478 505.988 126.648 505.988 124.476ZM522.025 137.94V185.792H507.36V137.94H522.025ZM558.048 137.34C561.707 137.34 564.852 138.169 567.482 139.827C570.112 141.484 572.056 143.743 573.313 146.601V137.94H587.892V185.792H573.313V177.131C572.056 179.99 570.112 182.248 567.482 183.906C564.852 185.564 561.707 186.393 558.048 186.393C554.104 186.393 550.559 185.421 547.415 183.477C544.327 181.476 541.869 178.617 540.039 174.901C538.267 171.185 537.381 166.84 537.381 161.866C537.381 156.835 538.267 152.49 540.039 148.831C541.869 145.115 544.327 142.285 547.415 140.341C550.559 138.34 554.104 137.34 558.048 137.34ZM562.765 150.203C559.621 150.203 557.077 151.232 555.133 153.29C553.246 155.349 552.303 158.207 552.303 161.866C552.303 165.525 553.246 168.384 555.133 170.442C557.077 172.5 559.621 173.529 562.765 173.529C565.852 173.529 568.368 172.471 570.312 170.356C572.313 168.241 573.313 165.411 573.313 161.866C573.313 158.264 572.313 155.434 570.312 153.376C568.368 151.261 565.852 150.203 562.765 150.203ZM636.065 137.425C641.553 137.425 645.898 139.255 649.1 142.914C652.359 146.573 653.988 151.604 653.988 158.007V185.792H639.324V159.722C639.324 156.521 638.466 154.034 636.751 152.261C635.093 150.432 632.863 149.517 630.062 149.517C627.089 149.517 624.716 150.46 622.944 152.347C621.229 154.234 620.371 156.921 620.371 160.408V185.792H605.707V122.332H620.371V146.687C621.743 143.829 623.773 141.57 626.46 139.912C629.204 138.254 632.406 137.425 636.065 137.425Z" fill="#8F0606"/>
<path fill-rule="evenodd" clip-rule="evenodd" d="M155.714 36.7539C156.753 38.5441 162.104 43.1126 164.104 45.1572C193.99 75.8259 218.594 125.962 232.669 166.678C237.492 180.647 245.931 205.163 247.706 220.463C243.883 222.302 240.962 224.757 237.806 226.313C235.6 223.28 233.699 219.641 231.483 216.55C223.024 204.801 217.143 199.861 207.645 189.638L189.776 173.672C165.427 154.185 117.829 114.585 83.9038 110.789C85.2663 109.136 90.2751 106.319 92.4708 104.734C96.0191 102.18 97.8521 100.292 100.901 97.5924C104.214 94.6674 105.664 92.9358 108.585 89.7075C109.791 88.3575 110.987 87.4967 112.32 86.0097C114.006 84.1119 114.261 83.1923 116.388 81.7347C128.287 85.9803 158.791 113.949 171.201 125.277C173.377 127.263 176.082 130.325 178.386 131.851C168.142 117.95 125.562 76.3053 115.711 72.0009C111.869 75.5129 107.674 80.2086 103.753 83.5445C90.6476 94.6576 81.2278 102.229 66.2993 111.034L62.6628 113.998C114.016 122.343 173.073 166.531 209.88 199.577C216.682 205.681 231.219 219.602 236.757 226.665C231.699 234.618 227.112 230.343 213.742 226.831C205.322 224.62 196.019 222.4 187.207 220.815C147.009 213.586 108.507 212.431 68.2793 220.492C59.134 222.322 50.6161 224.376 41.8825 226.704C33.4037 228.974 24.8073 232.554 16.7696 234.628C19.1711 229.209 22.3862 224.982 24.7289 218.242C27.2774 210.895 27.6401 205.681 28.385 197.483C72.6412 189.598 96.8131 185.627 141.452 185.617C146.96 185.617 154.194 186.488 159.36 185.676C157.272 185.881 132.708 181.988 127.111 181.459C114.643 180.276 102.557 180.119 89.9712 180.354C79.5321 180.559 28.0322 184.981 23.1312 189.608C21.7687 190.9 21.6511 194.314 21.0629 197.121C19.2299 205.818 17.4166 211.737 14.3779 220.15C11.2903 228.651 2.82134 245.957 2.28223 247.796C7.9086 246.622 15.0249 243.863 20.7395 242.102C27.2382 240.087 32.796 238.551 39.2751 236.78C99.7145 220.267 166.241 219.758 225.661 240.664C237.237 244.734 232.816 244.137 241.991 238.404C251.656 232.359 264.124 225.941 278.925 227.281C292.55 228.514 304.724 236.966 309.87 244.303C321.221 244.333 334.13 243.002 345.746 242.415C406.861 239.295 504.705 236.829 564.38 239.95C575.094 240.508 589.669 241.858 599.834 241.261C533.68 235.049 390.688 233.21 319.466 238.502C311.458 239.089 313.438 237.152 304.763 229.923C275.171 205.27 255.724 218.976 249.421 219.152C248.127 187.975 232.748 146.574 221.515 120.973C211.693 98.5902 197.931 69.6041 181.581 51.3692C178.905 48.3855 176.239 46.5366 173.445 43.68C200.96 42.9463 200.274 39.0626 219.113 35.5408C228.572 51.2518 235.522 71.7465 240.648 89.7467C240.854 90.4608 241.109 91.3413 241.324 91.8304C241.413 92.0358 241.746 92.6424 241.844 92.8184L242.471 93.7674C241.119 71.052 228.739 46.8007 223.191 28.1451C218.398 28.6832 212.673 30.6202 207.576 31.755C187.462 36.2354 175.367 35.5702 155.714 36.7539V36.7539Z" fill="#8F0606" stroke="#B82C2C" stroke-width="2.515" stroke-miterlimit="22.9256"/>
</svg>
